<?xml version="1.0" encoding="utf-8"?>
<!-- Generator: Adobe Illustrator 19.0.0, SVG Export Plug-In . SVG Version: 6.00 Build 0)  -->
<svg version="1.1" id="Layer_1" xmlns="http://www.w3.org/2000/svg" xmlns:xlink="http://www.w3.org/1999/xlink" x="0px" y="0px"
	 viewBox="0 0 252.9801331 404.6357727" style="enable-background:new 0 0 252.9801331 404.6357727;" xml:space="preserve">
<style type="text/css">
	.st0{fill:url(#XMLID_29_);}
</style>
<linearGradient id="XMLID_29_" gradientUnits="userSpaceOnUse" x1="126.0447845" y1="362.021637" x2="126.0447845" y2="61.3652802">
	<stop  offset="0" style="stop-color:#3498DB"/>
	<stop  offset="0.5" style="stop-color:#3DDB85"/>
	<stop  offset="1" style="stop-color:#008700"/>
</linearGradient>
<path id="XMLID_32_" class="st0" d="M245.8816528,270.0428467c-3.2057495-38.2861328-25.0990601-70.6931763-57.1065674-88.1031494
	l18.6419678-32.2860107c1.0686646-1.8557129,0.4328613-4.2260742-1.4197998-5.2977295
	c-1.8527222-1.0686035-4.2261353-0.4329224-5.2977905,1.4197998l-18.875061,32.6947021
	c-14.4341431-6.5874023-30.6452026-10.2564697-47.9432373-10.2564697c-17.2979126,0-33.5089722,3.6690674-47.9430542,10.2564697
	l-27.1022377-47.2930298l28.1084023,9.5537109c1.7558594,0.5966797,3.6796875,0.472168,5.3466797-0.3481445l30.6650391-15.1074219
	c2.5400391-1.2509766,4.0751953-3.9091797,3.8916016-6.734375c-0.1845703-2.8251953-2.0517578-5.2612305-4.7324219-6.1723633
	L33.3143883,82.1862183l-6.3583984-12.9052734l121.3193359,41.2353516c2.6816406,0.9101563,5.6464844,0.1176758,7.5136719-2.0097656
	c1.8681641-2.1279297,2.2695313-5.1713867,1.0185547-7.7109375l-15.1074219-30.6660156
	c-0.8203125-1.6655273-2.2685547-2.9370117-4.0263672-3.5341797L62.1278648,40.9181519l12.9043007-6.3579102l43.0273438,14.6245117
	c2.6806641,0.9111328,5.6464844,0.1176758,7.5136719-2.0097656c1.8681641-2.1279297,2.2695313-5.1713867,1.0185547-7.7114258
	L111.484314,8.7980356c-1.7089844-3.4687495-5.9042969-4.8945313-9.3730469-3.1855464
	c-3.4677734,1.7084961-4.8945313,5.9047847-3.1855469,9.3730469l7.6386719,15.5058603L76.7929077,20.3722553
	c-1.7578125-0.5976563-3.6806641-0.4726563-5.3466797,0.3481445l-30.6660194,15.10742
	c-2.5390625,1.2509766-4.0751953,3.9091797-3.8916016,6.734375c0.1845703,2.8251953,2.0517578,5.2612305,4.7324219,6.1723633
	l88.8017578,30.1826172l6.3574219,12.9057617L15.4608727,50.5870972c-2.6826172-0.9111328-5.6474609-0.1186523-7.5136719,2.0097656
	c-1.8681641,2.1279297-2.2695313,5.1713867-1.0185547,7.7114258l15.1083984,30.6660156
	c0.8203125,1.6650391,2.2685547,2.9365234,4.0263672,3.5336914l75.5458984,25.6772461l-12.9042969,6.3579102L45.676693,111.9186401
	c-2.7617188-0.9394531-5.8173828-0.0668945-7.6669922,2.1899414s-2.1054688,5.4233398-0.6425781,7.9477539l41.6202431,59.8833618
	c-32.0095863,17.4094849-53.9024086,49.8153076-57.106266,88.1000366h-0.0003052v53.6651001
	c0,6.812561,4.2300415,13.480835,10.1293945,16.9107056l92.8306885,53.3392944
	c5.9150391,3.3760376,13.7337036,3.3756714,19.6487427,0l92.1333618-53.3392944
	c5.899292-3.4298706,9.2578125-10.0981445,9.2578125-16.9107056v-53.6619873H245.8816528z M191.8807983,286.0585327v18.6745605
	c0,0.8265991-0.1980591,1.628479-0.9155884,2.0412598l-56.1555786,31.6790771
	c-0.2791138,0.1594849-0.5900879,0.4041748-0.9093018,0.4431763c0.00177,0.0002441,0.003418,0.1431274,0.005188,0.1431274
	h-0.5408325c0.00177,0,0.0234985-0.1428833,0.0252686-0.1431274c-0.3192139-0.0390015-0.6101685-0.2836304-0.8891602-0.4431763
	L76.088562,306.774353c-0.7455444-0.3939819-1.2077637-1.2001343-1.2077637-2.0412598v-18.6745605
	c0-1.6964722,2.0473022-2.9650269,3.5196533-2.1167603l55.1225586,30.9226074l55.2415161-30.9226074
	c1.3356934-0.7412109,3.1279297,0.163147,3.4130249,1.6629028
	C192.1921997,285.7533569,191.8807983,285.9093628,191.8807983,286.0585327z M185.4298096,219.4689941
	c5.1434937,0,9.3270874,4.1837158,9.3270874,9.3270874c0,5.1433105-4.1835938,9.3300781-9.3270874,9.3300781
	c-5.1432495,0-9.3270264-4.1867676-9.3270264-9.3300781C176.1027832,223.65271,180.2865601,219.4689941,185.4298096,219.4689941z
	 M82.3326416,219.4689941c5.1433105,0,9.3270874,4.1837158,9.3270874,9.3270874
	c0,5.1433105-4.1837769,9.3300781-9.3270874,9.3300781c-5.1434326,0-9.3270264-4.1867676-9.3270264-9.3300781
	C73.0056152,223.65271,77.189209,219.4689941,82.3326416,219.4689941z"/>
</svg>
